<svg width="85" height="80" viewBox="0 0 85 80" fill="none" xmlns="http://www.w3.org/2000/svg">
<path d="M36.2025 0.765957C28.848 2.37631 24.9134 10.3783 28.1341 17.2015C28.4827 17.932 29.0804 18.9281 29.4622 19.3929C30.3255 20.4886 45.931 34.7494 46.4954 34.9486C46.7611 35.0482 47.0599 35.0482 47.3255 34.9486C47.807 34.766 62.8148 21.1527 63.9935 19.8246C66.766 16.7035 67.596 11.64 65.9525 7.73861C65.0394 5.53061 63.1468 3.3392 61.1878 2.17709C57.0374 -0.296543 52.1068 0.0686911 48.1224 3.12338L46.9105 4.03647L45.7152 3.12338C42.8431 0.931972 39.3568 0.0686911 36.2025 0.765957ZM41.2659 3.67123C42.5111 4.08627 43.5238 4.71713 45.2171 6.14486C46.7943 7.47299 47.0267 7.47299 48.6038 6.14486C51.2767 3.88705 52.6546 3.28939 55.2113 3.27279C56.6224 3.25619 57.1702 3.3392 58.0833 3.63803C63.346 5.4642 65.6868 11.4906 63.0804 16.471C62.7484 17.1019 62.1009 17.9984 61.6195 18.4798C60.391 19.7581 47.0765 31.8109 46.9105 31.8109C46.7445 31.8109 33.2806 19.6087 32.1185 18.3968C30.6409 16.8861 29.6449 14.3958 29.6449 12.2044C29.6449 10.8763 30.1761 8.85092 30.8402 7.67221C31.9857 5.64682 34.4759 3.80404 36.7005 3.3558C37.929 3.10678 40.0208 3.23959 41.2659 3.67123Z" fill="#95BD75"/>
<rect x="29.4106" y="4.18881" width="35" height="17" rx="5" fill="#95BD75"/>
<rect x="33.4106" y="21.1699" width="21.0374" height="18.7968" transform="rotate(-45.4074 33.4106 21.1699)" fill="#95BD75"/>
<rect x="62.7441" y="4.57578" width="11.4793" height="12.0375" rx="5" transform="rotate(109.687 62.7441 4.57578)" fill="#95BD75"/>
<rect x="46.4106" y="4.18881" width="12.742" height="12.4341" rx="5" transform="rotate(109.687 46.4106 4.18881)" fill="#95BD75"/>
<path d="M0.565147 36.1977L0.00014291 36.8236V53.8699C0.00014291 72.4072 -0.0330927 71.6893 0.91412 72.1679C1.46251 72.4441 12.0813 72.4809 12.962 72.2048C14.2249 71.8182 15.355 70.7689 16.2191 69.1489C16.3853 68.8176 16.4351 68.8176 17.7978 69.1489C20.1076 69.7012 21.0548 70.1982 26.439 73.7695C29.2806 75.6656 32.2054 77.488 32.9532 77.8378C37.6394 80.0652 42.9737 80.3413 47.8593 78.5925C48.5406 78.3532 54.1574 75.684 60.3226 72.665C66.4878 69.6644 73.3343 66.3324 75.5279 65.2647C81.9091 62.1721 82.4242 61.8776 83.3881 60.7178C84.5679 59.282 84.9834 58.0302 85 55.9132C85 54.4405 84.9335 54.1276 84.4682 53.0415C84.1857 52.3604 83.6872 51.4952 83.3548 51.0902C82.0919 49.5439 79.5992 48.605 77.738 48.9916C77.2395 49.0836 73.2346 50.5379 68.8143 52.2131C64.4106 53.8883 60.7879 55.2689 60.7713 55.2689C60.7547 55.2689 60.7381 54.5878 60.7214 53.741C60.7214 52.434 60.655 52.0474 60.2063 51.0349C59.2591 48.7891 57.5973 47.298 55.5367 46.8194C54.9883 46.6905 52.4458 46.6169 48.8065 46.6169H42.9571L38.8026 44.0213C36.526 42.5854 34.0832 41.1127 33.4018 40.7262C31.0421 39.4008 30.959 39.3823 23.2318 39.3087L16.3188 39.2351L16.1028 38.6828C15.8036 37.8544 14.5573 36.529 13.6599 36.0688C12.9121 35.6822 12.6296 35.6638 7.01284 35.6086L1.14677 35.5534L0.565147 36.1977ZM12.7293 39.8794L13.2944 40.5053V53.8699C13.2944 63.8289 13.2445 67.3449 13.0949 67.6947C12.7127 68.6335 12.3471 68.7071 7.64431 68.7071H3.3237V53.9803V39.2535H7.74402H12.1643L12.7293 39.8794ZM30.743 43.4322C31.2582 43.6347 33.8339 45.1626 36.4761 46.801C39.1184 48.4578 41.611 49.912 42.0265 50.0593C42.5748 50.2434 44.22 50.2986 48.7733 50.2986H54.7723L55.6032 50.7588C56.0685 51.0165 56.5836 51.4399 56.7664 51.7161C57.9629 53.5017 57.5474 55.9868 55.8857 57.1282L55.2542 57.57L45.915 57.662L36.5592 57.7541L36.1105 58.2511C35.4292 59.0058 35.4624 60.0919 36.1936 60.8099L36.7254 61.3437H45.9981H55.2542L56.4174 60.8651C57.0655 60.6074 61.0538 59.0795 65.3079 57.4595C69.5621 55.8212 74.1154 54.0908 75.4448 53.5753C78.1202 52.5629 79.1339 52.434 80.1642 52.9678C81.5435 53.7042 82.1417 55.8764 81.3939 57.4595C81.1779 57.9197 80.8289 58.4352 80.5963 58.6193C80.3636 58.8033 72.7693 62.5771 63.7293 66.9767C52.2962 72.5545 46.7958 75.1501 45.699 75.4815C44.3363 75.8865 43.7713 75.9417 41.4615 75.9601C38.6531 75.9785 37.7723 75.8312 35.5622 75.0213C33.8505 74.377 33.352 74.0824 27.9346 70.4928C25.3256 68.7624 22.8496 67.1608 22.4341 66.9399C21.3706 66.3692 19.2435 65.6513 17.831 65.3936L16.6179 65.1727V54.0355V42.9168L23.2318 42.972C29.4302 43.0456 29.8789 43.0641 30.743 43.4322Z" fill="#739855"/>
<path d="M7.21246 43.5611C6.5976 44.2422 6.49789 44.8497 6.8801 45.6781C7.66114 47.3348 9.97101 46.5985 9.97101 44.6656C9.97101 43.9661 8.99056 42.9352 8.30923 42.9352C7.92702 42.9352 7.6279 43.1009 7.21246 43.5611Z" fill="#739855"/>
</svg>
