<svg width="85" height="85" viewBox="0 0 85 85" fill="none" xmlns="http://www.w3.org/2000/svg">
<path d="M36.941 0.307855C32.5132 1.36185 28.6745 5.5989 27.4203 10.8689C26.9072 12.9979 26.8502 16.708 27.3252 18.8371C27.7243 20.7343 29.2446 24.1281 30.4988 26.0042C32.2091 28.5127 36.77 33.3822 42.9841 39.2635C46.2527 42.3622 49.0462 44.934 49.1982 44.9972C49.3502 45.0604 50.5665 44.0486 52.1817 42.5098C53.702 41.0763 56.8376 38.1041 59.194 35.8907C63.6598 31.6536 66.9474 28.0701 68.6387 25.5826C69.8359 23.8119 71.1852 20.8186 71.6603 18.9425C72.1164 17.0664 72.1164 12.8293 71.6413 10.9321C70.9381 8.00201 69.4559 5.30379 67.4415 3.3012C64.857 0.750533 60.8663 -0.49318 57.2937 0.181376C54.7092 0.666213 51.5736 2.83744 49.9013 5.30379L49.5213 5.89402L47.7349 3.91251C45.7966 1.76237 44.4473 0.877012 42.2429 0.286775C40.7607 -0.0926625 38.5943 -0.0926625 36.941 0.307855Z" fill="#95BD75"/>
<path d="M0.565147 41.1977L0.00014291 41.8236V58.8699C0.00014291 77.4072 -0.0330927 76.6893 0.91412 77.1679C1.46251 77.4441 12.0813 77.4809 12.962 77.2048C14.2249 76.8182 15.355 75.7689 16.2191 74.1489C16.3853 73.8176 16.4351 73.8176 17.7978 74.1489C20.1076 74.7012 21.0548 75.1982 26.439 78.7695C29.2806 80.6656 32.2054 82.488 32.9532 82.8378C37.6394 85.0652 42.9737 85.3413 47.8593 83.5925C48.5406 83.3532 54.1574 80.684 60.3226 77.665C66.4878 74.6644 73.3343 71.3324 75.5279 70.2647C81.9091 67.1721 82.4242 66.8776 83.3881 65.7178C84.5679 64.282 84.9834 63.0302 85 60.9132C85 59.4405 84.9335 59.1276 84.4682 58.0415C84.1857 57.3604 83.6872 56.4952 83.3548 56.0902C82.0919 54.5439 79.5992 53.605 77.738 53.9916C77.2395 54.0836 73.2346 55.5379 68.8143 57.2131C64.4106 58.8883 60.7879 60.2689 60.7713 60.2689C60.7547 60.2689 60.7381 59.5878 60.7214 58.741C60.7214 57.434 60.655 57.0474 60.2063 56.0349C59.2591 53.7891 57.5973 52.298 55.5367 51.8194C54.9883 51.6905 52.4458 51.6169 48.8065 51.6169H42.9571L38.8026 49.0213C36.526 47.5854 34.0832 46.1127 33.4018 45.7262C31.0421 44.4008 30.959 44.3823 23.2318 44.3087L16.3188 44.2351L16.1028 43.6828C15.8036 42.8544 14.5573 41.529 13.6599 41.0688C12.9121 40.6822 12.6296 40.6638 7.01284 40.6086L1.14677 40.5534L0.565147 41.1977ZM12.7293 44.8794L13.2944 45.5053V58.8699C13.2944 68.8289 13.2445 72.3449 13.0949 72.6947C12.7127 73.6335 12.3471 73.7071 7.64431 73.7071H3.3237V58.9803V44.2535H7.74402H12.1643L12.7293 44.8794ZM30.743 48.4322C31.2582 48.6347 33.8339 50.1626 36.4761 51.801C39.1184 53.4578 41.611 54.912 42.0265 55.0593C42.5748 55.2434 44.22 55.2986 48.7733 55.2986H54.7723L55.6032 55.7588C56.0685 56.0165 56.5836 56.4399 56.7664 56.7161C57.9629 58.5017 57.5474 60.9868 55.8857 62.1282L55.2542 62.57L45.915 62.662L36.5592 62.7541L36.1105 63.2511C35.4292 64.0058 35.4624 65.0919 36.1936 65.8099L36.7254 66.3437H45.9981H55.2542L56.4174 65.8651C57.0655 65.6074 61.0538 64.0795 65.3079 62.4595C69.5621 60.8212 74.1154 59.0908 75.4448 58.5753C78.1202 57.5629 79.1339 57.434 80.1642 57.9678C81.5435 58.7042 82.1417 60.8764 81.3939 62.4595C81.1779 62.9197 80.8289 63.4352 80.5963 63.6193C80.3636 63.8033 72.7693 67.5771 63.7293 71.9767C52.2962 77.5545 46.7958 80.1501 45.699 80.4815C44.3363 80.8865 43.7713 80.9417 41.4615 80.9601C38.6531 80.9785 37.7723 80.8312 35.5622 80.0213C33.8505 79.377 33.352 79.0824 27.9346 75.4928C25.3256 73.7624 22.8496 72.1608 22.4341 71.9399C21.3706 71.3692 19.2435 70.6513 17.831 70.3936L16.6179 70.1727V59.0355V47.9168L23.2318 47.972C29.4302 48.0456 29.8789 48.0641 30.743 48.4322Z" fill="#739855"/>
<path d="M7.21246 48.5611C6.5976 49.2422 6.49789 49.8497 6.8801 50.6781C7.66114 52.3348 9.97101 51.5985 9.97101 49.6656C9.97101 48.9661 8.99056 47.9352 8.30923 47.9352C7.92702 47.9352 7.6279 48.1009 7.21246 48.5611Z" fill="#739855"/>
</svg>
