<svg width="85" height="85" viewBox="0 0 85 85" fill="none" xmlns="http://www.w3.org/2000/svg">
<g clip-path="url(#clip0_330_271)">
<path d="M49.1406 6.24221C45.2724 7.07228 41.9189 10.4092 40.8232 14.5596C40.375 16.2363 40.3252 19.1582 40.7402 20.835C41.0888 22.3291 42.417 25.002 43.5127 26.4795C45.0068 28.4551 48.9912 32.2901 54.4199 36.9219C57.2753 39.3623 59.7158 41.3877 59.8486 41.4375C59.9814 41.4873 61.0439 40.6904 62.455 39.4785C63.7832 38.3496 66.5224 36.0088 68.581 34.2656C72.4824 30.9287 75.3545 28.1065 76.832 26.1475C77.8779 24.7529 79.0566 22.3955 79.4716 20.918C79.8701 19.4404 79.8701 16.1035 79.455 14.6094C78.8408 12.3018 77.5459 10.1768 75.7861 8.59963C73.5283 6.59084 70.042 5.61135 66.9209 6.1426C64.663 6.52443 61.9238 8.23439 60.4628 10.1768L60.1308 10.6416L58.5703 9.08107C56.8769 7.38771 55.6982 6.69045 53.7724 6.2256C52.4775 5.92678 50.5849 5.92678 49.1406 6.24221Z" fill="#95BD75"/>
<path d="M27.3926 41.0889C24.7529 41.6201 22.6777 42.7324 19.4902 45.2891C15.6719 48.3604 12.999 50.751 8.71582 54.8848C4.96387 58.5205 3.37012 59.998 0.614258 62.3721L0 62.9033L6.09277 70.9219C9.42969 75.3379 12.1855 78.957 12.2187 78.9902C12.2354 79.0234 13.0986 78.4756 14.1279 77.7783C19.6064 74.126 24.6699 72.499 30.6299 72.499C33.5684 72.499 33.4023 72.4658 42.085 73.96C50.1367 75.3379 50.3857 75.3711 53.4238 75.3711C57.624 75.3711 60.5625 74.7402 63.8662 73.1133C67.3857 71.3867 71.3037 68.4814 74.8066 64.9785C78.7744 61.0107 80.6006 58.0557 83.4394 51.1328C85.0664 47.1152 85.2656 46.1855 84.7178 45.04C84.2861 44.1104 83.6221 43.7949 82.3437 43.8779C79.5879 44.0605 77.7949 45.6875 73.4785 51.8799C72.582 53.1582 71.3867 54.6855 70.8389 55.2666C68.0332 58.1553 64.3476 60.0313 60.3633 60.5791C59.5664 60.6953 55.416 60.7617 49.5391 60.7617H40.0098V58.2881V55.8311L46.7832 55.7314C55.0674 55.6152 58.1885 55.2998 62.0566 54.1875C65.792 53.1084 67.4687 51.2324 66.124 49.6221C65.4932 48.8916 63.7168 48.0781 61.625 47.5801C60.6455 47.3477 57.4912 46.8164 54.6191 46.4014C44.3262 44.9072 40.4248 44.0107 35.3447 42.002C32.5391 40.873 29.916 40.5742 27.3926 41.0889Z" fill="#739855"/>
</g>
<defs>
<clipPath id="clip0_330_271">
<rect width="85" height="85" fill="white"/>
</clipPath>
</defs>
</svg>
