<svg width="85" height="85" viewBox="0 0 85 85" fill="none" xmlns="http://www.w3.org/2000/svg">
<path d="M31.7918 1.57714C24.4373 3.1875 20.5028 11.1895 23.7235 18.0127C24.0721 18.7432 24.6698 19.7393 25.0516 20.2041C25.9149 21.2998 41.5203 35.5605 42.0848 35.7598C42.3504 35.8594 42.6493 35.8594 42.9149 35.7598C43.3963 35.5771 58.4041 21.9639 59.5828 20.6357C62.3553 17.5146 63.1854 12.4512 61.5418 8.5498C60.6287 6.34179 58.7362 4.15039 56.7772 2.98828C52.6268 0.514645 47.6961 0.879879 43.7118 3.93457L42.4998 4.84765L41.3045 3.93457C38.4325 1.74316 34.9461 0.879879 31.7918 1.57714ZM36.8553 4.48242C38.1004 4.89746 39.1131 5.52832 40.8065 6.95605C42.3836 8.28418 42.616 8.28418 44.1932 6.95605C46.866 4.69824 48.244 4.10058 50.8006 4.08398C52.2118 4.06738 52.7596 4.15039 53.6727 4.44921C58.9354 6.27539 61.2762 12.3018 58.6698 17.2822C58.3377 17.9131 57.6903 18.8096 57.2088 19.291C55.9803 20.5693 42.6659 32.6221 42.4998 32.6221C42.3338 32.6221 28.87 20.4199 27.7078 19.208C26.2303 17.6973 25.2342 15.207 25.2342 13.0156C25.2342 11.6875 25.7655 9.66211 26.4295 8.48339C27.575 6.458 30.0653 4.61523 32.2899 4.16699C33.5184 3.91796 35.6102 4.05078 36.8553 4.48242Z" fill="#F97B22"/>
<path d="M12.6338 17.4482C11.3721 17.8135 10.1768 18.9258 9.62891 20.2373L9.42969 20.7354L8.73242 20.3867C7.71973 19.8389 5.54492 19.8721 4.39941 20.4199C3.35352 20.9346 2.34082 21.9307 1.82617 22.9932L1.41113 23.8232L1.36133 35.9756L1.31152 48.1279L5.41211 55.6484L9.49609 63.1689L15.041 68.7305C19.125 72.8477 20.6523 74.4912 20.9014 75.0391C21.2168 75.7197 21.25 76.1348 21.25 79.3223C21.25 82.8584 21.25 82.8584 21.665 83.2568L22.0635 83.6719H30.5469H39.0303L39.4287 83.2568L39.8438 82.8584V74.0098C39.8438 64.4307 39.8105 63.9824 38.9307 62.5049C38.7148 62.1396 37.0547 60.2305 35.2119 58.2715L31.875 54.7021V47.9619C31.875 40.043 31.8584 39.9766 30.4805 38.582C29.2021 37.3037 27.4258 36.8721 25.8652 37.4199L25.2344 37.6523V33.4688C25.2344 28.3887 25.1514 27.9404 23.8398 26.6289C22.5615 25.3506 20.7852 24.9189 19.2246 25.4668L18.5938 25.6992V23.5078C18.5938 20.6191 18.3613 19.8389 17.1992 18.6602C15.9541 17.4316 14.2939 16.9834 12.6338 17.4482ZM15.3398 20.5693L15.8545 21.084L15.9043 32.3232C15.9375 43.1641 15.9375 43.5625 15.6221 43.8945C15.4561 44.0938 15.1738 44.5254 14.9912 44.874L14.6758 45.5049L13.3145 43.7783L11.9531 42.0352L11.9863 31.5762L12.0361 21.1172L12.4512 20.6689C12.999 20.0713 13.3975 19.9053 14.1777 19.9883C14.626 20.0381 14.9912 20.2207 15.3398 20.5693ZM8.10156 23.0264C8.33398 23.1924 8.68262 23.5576 8.86523 23.8066C9.19727 24.2549 9.21387 24.4873 9.29688 33.668L9.37988 43.0811L16.751 52.4609C20.8018 57.624 24.1387 61.8574 24.1553 61.874C24.2051 61.9736 26.1475 60.3965 26.1475 60.2637C26.1475 60.1807 24.1553 57.5742 21.7148 54.4697L17.2656 48.8086V47.3975C17.2656 46.1025 17.2988 45.9365 17.6807 45.5713C17.9629 45.2725 18.2617 45.1562 18.6934 45.1562C19.2246 45.1562 19.4404 45.2725 20.0713 45.9531C24.7197 50.8008 36.374 63.4346 36.6895 63.9658L37.1045 64.6631L37.1543 72.8311L37.2041 81.0156H30.5635H23.9395L23.873 77.9775L23.8232 74.9561L23.2754 73.7939C22.7773 72.7314 22.2461 72.1504 17.1826 67.0703L11.6377 61.5088L7.80273 54.5029L3.98438 47.4805V36.125C3.98438 28.4717 4.03418 24.6035 4.16699 24.2881C4.39941 23.6738 4.94727 23.0928 5.56152 22.8105C6.22559 22.4951 7.53711 22.6113 8.10156 23.0264ZM21.9805 28.5381L22.4951 29.0527L22.5449 36.8887L22.5947 44.708L21.6152 43.7949C20.6855 42.9482 19.7725 42.5 18.9424 42.5H18.5771L18.627 35.793L18.6768 29.0859L19.0918 28.6377C19.6396 28.04 20.0381 27.874 20.8184 27.957C21.2666 28.0068 21.6318 28.1895 21.9805 28.5381ZM28.6211 40.4912L29.1357 41.0059L29.1855 46.4346L29.2354 51.8467L27.8408 50.3691C27.0771 49.5557 26.1807 48.5762 25.832 48.1943L25.2178 47.4971L25.2676 44.2598C25.3174 41.0723 25.3174 41.0225 25.7324 40.5908C26.2803 39.9932 26.6787 39.8271 27.459 39.9102C27.9072 39.96 28.2725 40.1426 28.6211 40.4912Z" fill="#F97B22"/>
<path d="M69.4941 17.5312C68.9463 17.7139 68.415 18.0625 67.8008 18.6602C66.6387 19.8389 66.4062 20.6191 66.4062 23.5078V25.6992L65.792 25.4668C64.2148 24.9189 62.4385 25.3506 61.1602 26.6289C59.8486 27.9404 59.7656 28.3887 59.7656 33.4688V37.6523L59.1514 37.4199C57.5742 36.8721 55.7979 37.3037 54.5195 38.582C53.1416 39.9766 53.125 40.043 53.125 47.9619V54.7021L49.7881 58.2715C47.9453 60.2305 46.2852 62.1396 46.0693 62.5049C45.1895 63.9824 45.1562 64.4307 45.1562 74.0098V82.8584L45.5713 83.2568L45.9697 83.6719H54.4531H62.9365L63.335 83.2568C63.75 82.8584 63.75 82.8584 63.75 79.3223C63.75 76.1348 63.7832 75.7197 64.0986 75.0391C64.3477 74.4912 65.875 72.8477 69.959 68.7305L75.5039 63.1689L79.5879 55.6484L83.6885 48.1279L83.6387 35.9756L83.5889 23.8232L83.1406 22.9766C82.4766 21.7148 81.9785 21.2002 80.8164 20.5693C79.8535 20.0547 79.6543 20.0049 78.3594 20.0215C77.2471 20.0215 76.8154 20.0879 76.2676 20.3701L75.5869 20.7354L75.2549 20.0381C74.1758 17.8301 71.8018 16.7842 69.4941 17.5312ZM72.4492 20.5693L72.9639 21.084L73.0137 31.5596L73.0469 42.0352L71.6855 43.7783L70.3242 45.5049L70.0088 44.874C69.8262 44.5254 69.5439 44.0938 69.3779 43.8945C69.0625 43.5625 69.0625 43.1641 69.0957 32.3232L69.1455 21.1172L69.5605 20.6689C70.1084 20.0713 70.5068 19.9053 71.2871 19.9883C71.7354 20.0381 72.1006 20.2207 72.4492 20.5693ZM79.8203 23.0264C80.0527 23.1924 80.4014 23.5576 80.584 23.8066C80.9326 24.2549 80.9326 24.4375 80.9824 35.876L81.0156 47.4805L77.1973 54.4863L73.3623 61.5088L67.8174 67.0703C62.7539 72.1504 62.2227 72.7314 61.7246 73.7939L61.1768 74.9561L61.127 77.9941L61.0605 81.0156H54.4365H47.7959L47.8457 72.8311L47.8955 64.6631L48.3105 63.9658C48.626 63.4346 60.2803 50.8008 64.9287 45.9531C65.5596 45.2725 65.7754 45.1562 66.3066 45.1562C66.7383 45.1562 67.0371 45.2725 67.3193 45.5713C67.7012 45.9365 67.7344 46.1025 67.7344 47.3975V48.8252L63.252 54.5029C60.7949 57.624 58.7695 60.2139 58.7861 60.2637C58.7861 60.3135 59.2344 60.6953 59.7988 61.127L60.7949 61.9238L61.1602 61.4756C61.3428 61.2266 64.6963 56.96 68.6143 51.9795L75.7031 42.9482V33.8506C75.7031 27.8076 75.7695 24.6035 75.8857 24.2881C76.1182 23.6738 76.666 23.0928 77.2803 22.8105C77.9443 22.4951 79.2559 22.6113 79.8203 23.0264ZM65.8086 28.5381L66.3232 29.0527L66.373 35.7764L66.4229 42.5H66.0576C65.2275 42.5 64.3145 42.9482 63.3848 43.7949L62.4053 44.708L62.4551 36.8887L62.5049 29.0859L62.9199 28.6377C63.4678 28.04 63.8662 27.874 64.6465 27.957C65.0947 28.0068 65.46 28.1895 65.8086 28.5381ZM59.168 40.4912L59.6826 41.0059L59.7324 44.2598L59.7822 47.4971L59.168 48.1943C58.8193 48.5762 57.9229 49.5557 57.1592 50.3691L55.7646 51.8467L55.8145 46.4512L55.8643 41.0391L56.2793 40.5908C56.8271 39.9932 57.2256 39.8271 58.0059 39.9102C58.4541 39.96 58.8193 40.1426 59.168 40.4912Z" fill="#F97B22"/>
<rect x="25" y="5" width="35" height="17" rx="5" fill="#F97B22"/>
<rect x="29" y="21.9811" width="21.0374" height="18.7968" transform="rotate(-45.4074 29 21.9811)" fill="#F97B22"/>
<rect x="58.3335" y="5.38694" width="11.4793" height="12.0375" rx="5" transform="rotate(109.687 58.3335 5.38694)" fill="#F97B22"/>
<rect x="42" y="5" width="12.742" height="12.4341" rx="5" transform="rotate(109.687 42 5)" fill="#F97B22"/>
</svg>
